<mxfile host="app.diagrams.net" modified="2021-11-04T18:27:23.956Z" agent="5.0 (Windows NT 10.0; Win64; x64) AppleWebKit/537.36 (KHTML, like Gecko) Chrome/95.0.4638.69 Safari/537.36" etag="iNF8Buq72tyWcLMU6rFl" version="15.6.8" type="github">
  <diagram id="jkDw5KnAWA2Iy1HF7PQo" name="Page-1">
    <mxGraphModel dx="1673" dy="1996" grid="1" gridSize="10" guides="1" tooltips="1" connect="1" arrows="1" fold="1" page="1" pageScale="1" pageWidth="850" pageHeight="1100" math="0" shadow="0">
      <root>
        <mxCell id="0" />
        <mxCell id="1" parent="0" />
        <mxCell id="MXh0XPTJ4W-5BztZ-EwL-6" value="" style="edgeStyle=orthogonalEdgeStyle;rounded=0;orthogonalLoop=1;jettySize=auto;html=1;" edge="1" parent="1" source="MXh0XPTJ4W-5BztZ-EwL-1" target="MXh0XPTJ4W-5BztZ-EwL-5">
          <mxGeometry relative="1" as="geometry" />
        </mxCell>
        <mxCell id="MXh0XPTJ4W-5BztZ-EwL-1" value="Начало" style="rounded=1;whiteSpace=wrap;html=1;" vertex="1" parent="1">
          <mxGeometry x="40" y="20" width="120" height="60" as="geometry" />
        </mxCell>
        <mxCell id="MXh0XPTJ4W-5BztZ-EwL-2" value="Merger_sort(int* arr, int* tmp, int left_index, int right_index)" style="strokeWidth=2;html=1;shape=mxgraph.flowchart.annotation_1;align=left;pointerEvents=1;" vertex="1" parent="1">
          <mxGeometry x="400" width="10" height="100" as="geometry" />
        </mxCell>
        <mxCell id="MXh0XPTJ4W-5BztZ-EwL-4" value="" style="endArrow=none;dashed=1;html=1;rounded=0;exitX=1;exitY=0.5;exitDx=0;exitDy=0;entryX=0;entryY=0.5;entryDx=0;entryDy=0;entryPerimeter=0;" edge="1" parent="1" source="MXh0XPTJ4W-5BztZ-EwL-1" target="MXh0XPTJ4W-5BztZ-EwL-2">
          <mxGeometry width="50" height="50" relative="1" as="geometry">
            <mxPoint x="400" y="320" as="sourcePoint" />
            <mxPoint x="450" y="270" as="targetPoint" />
          </mxGeometry>
        </mxCell>
        <mxCell id="MXh0XPTJ4W-5BztZ-EwL-10" value="" style="edgeStyle=orthogonalEdgeStyle;rounded=0;orthogonalLoop=1;jettySize=auto;html=1;" edge="1" parent="1" source="MXh0XPTJ4W-5BztZ-EwL-5" target="MXh0XPTJ4W-5BztZ-EwL-7">
          <mxGeometry relative="1" as="geometry" />
        </mxCell>
        <mxCell id="MXh0XPTJ4W-5BztZ-EwL-11" value="True" style="edgeLabel;html=1;align=center;verticalAlign=middle;resizable=0;points=[];" vertex="1" connectable="0" parent="MXh0XPTJ4W-5BztZ-EwL-10">
          <mxGeometry x="-0.301" y="1" relative="1" as="geometry">
            <mxPoint as="offset" />
          </mxGeometry>
        </mxCell>
        <mxCell id="MXh0XPTJ4W-5BztZ-EwL-13" value="" style="edgeStyle=orthogonalEdgeStyle;rounded=0;orthogonalLoop=1;jettySize=auto;html=1;" edge="1" parent="1" source="MXh0XPTJ4W-5BztZ-EwL-5" target="MXh0XPTJ4W-5BztZ-EwL-12">
          <mxGeometry relative="1" as="geometry" />
        </mxCell>
        <mxCell id="MXh0XPTJ4W-5BztZ-EwL-14" value="False" style="edgeLabel;html=1;align=center;verticalAlign=middle;resizable=0;points=[];" vertex="1" connectable="0" parent="MXh0XPTJ4W-5BztZ-EwL-13">
          <mxGeometry x="-0.2157" y="2" relative="1" as="geometry">
            <mxPoint as="offset" />
          </mxGeometry>
        </mxCell>
        <mxCell id="MXh0XPTJ4W-5BztZ-EwL-5" value="left_index &amp;lt; right_index" style="rhombus;whiteSpace=wrap;html=1;" vertex="1" parent="1">
          <mxGeometry x="55" y="130" width="90" height="90" as="geometry" />
        </mxCell>
        <mxCell id="MXh0XPTJ4W-5BztZ-EwL-9" value="" style="edgeStyle=orthogonalEdgeStyle;rounded=0;orthogonalLoop=1;jettySize=auto;html=1;" edge="1" parent="1" source="MXh0XPTJ4W-5BztZ-EwL-7" target="MXh0XPTJ4W-5BztZ-EwL-8">
          <mxGeometry relative="1" as="geometry" />
        </mxCell>
        <mxCell id="MXh0XPTJ4W-5BztZ-EwL-7" value="Merger_sort(arr, tmp, left_index, mid_index)" style="shape=process;whiteSpace=wrap;html=1;backgroundOutline=1;" vertex="1" parent="1">
          <mxGeometry x="40" y="270" width="120" height="60" as="geometry" />
        </mxCell>
        <mxCell id="MXh0XPTJ4W-5BztZ-EwL-18" value="" style="edgeStyle=orthogonalEdgeStyle;rounded=0;orthogonalLoop=1;jettySize=auto;html=1;" edge="1" parent="1" source="MXh0XPTJ4W-5BztZ-EwL-8" target="MXh0XPTJ4W-5BztZ-EwL-15">
          <mxGeometry relative="1" as="geometry" />
        </mxCell>
        <mxCell id="MXh0XPTJ4W-5BztZ-EwL-8" value="Merger_sort(arr, tmp, mid_index, right_index)" style="shape=process;whiteSpace=wrap;html=1;backgroundOutline=1;" vertex="1" parent="1">
          <mxGeometry x="40" y="380" width="120" height="60" as="geometry" />
        </mxCell>
        <mxCell id="MXh0XPTJ4W-5BztZ-EwL-12" value="Окончание" style="rounded=1;whiteSpace=wrap;html=1;" vertex="1" parent="1">
          <mxGeometry x="230" y="145" width="120" height="60" as="geometry" />
        </mxCell>
        <mxCell id="MXh0XPTJ4W-5BztZ-EwL-20" value="" style="edgeStyle=orthogonalEdgeStyle;rounded=0;orthogonalLoop=1;jettySize=auto;html=1;" edge="1" parent="1" source="MXh0XPTJ4W-5BztZ-EwL-15" target="MXh0XPTJ4W-5BztZ-EwL-19">
          <mxGeometry relative="1" as="geometry" />
        </mxCell>
        <mxCell id="MXh0XPTJ4W-5BztZ-EwL-15" value="int left_spot=left_index&lt;br&gt;" style="whiteSpace=wrap;html=1;aspect=fixed;" vertex="1" parent="1">
          <mxGeometry x="220" y="340" width="140" height="140" as="geometry" />
        </mxCell>
        <mxCell id="MXh0XPTJ4W-5BztZ-EwL-26" value="" style="edgeStyle=orthogonalEdgeStyle;rounded=0;orthogonalLoop=1;jettySize=auto;html=1;" edge="1" parent="1" source="MXh0XPTJ4W-5BztZ-EwL-19" target="MXh0XPTJ4W-5BztZ-EwL-21">
          <mxGeometry relative="1" as="geometry" />
        </mxCell>
        <mxCell id="MXh0XPTJ4W-5BztZ-EwL-28" value="True" style="edgeLabel;html=1;align=center;verticalAlign=middle;resizable=0;points=[];" vertex="1" connectable="0" parent="MXh0XPTJ4W-5BztZ-EwL-26">
          <mxGeometry x="-0.2762" y="1" relative="1" as="geometry">
            <mxPoint as="offset" />
          </mxGeometry>
        </mxCell>
        <mxCell id="MXh0XPTJ4W-5BztZ-EwL-30" style="edgeStyle=orthogonalEdgeStyle;rounded=0;orthogonalLoop=1;jettySize=auto;html=1;exitX=1;exitY=0.5;exitDx=0;exitDy=0;entryX=0;entryY=0.5;entryDx=0;entryDy=0;" edge="1" parent="1" source="MXh0XPTJ4W-5BztZ-EwL-19" target="MXh0XPTJ4W-5BztZ-EwL-29">
          <mxGeometry relative="1" as="geometry" />
        </mxCell>
        <mxCell id="MXh0XPTJ4W-5BztZ-EwL-31" value="False" style="edgeLabel;html=1;align=center;verticalAlign=middle;resizable=0;points=[];" vertex="1" connectable="0" parent="MXh0XPTJ4W-5BztZ-EwL-30">
          <mxGeometry x="-0.2635" relative="1" as="geometry">
            <mxPoint as="offset" />
          </mxGeometry>
        </mxCell>
        <mxCell id="MXh0XPTJ4W-5BztZ-EwL-19" value="left_spot&amp;lt;=((left_index+right_index)/2&lt;br&gt;&amp;amp;&amp;amp;&lt;br&gt;right_spot&amp;lt;=right_index" style="rhombus;whiteSpace=wrap;html=1;" vertex="1" parent="1">
          <mxGeometry x="410" y="315" width="190" height="190" as="geometry" />
        </mxCell>
        <mxCell id="MXh0XPTJ4W-5BztZ-EwL-25" value="" style="edgeStyle=orthogonalEdgeStyle;rounded=0;orthogonalLoop=1;jettySize=auto;html=1;" edge="1" parent="1" source="MXh0XPTJ4W-5BztZ-EwL-21" target="MXh0XPTJ4W-5BztZ-EwL-23">
          <mxGeometry relative="1" as="geometry" />
        </mxCell>
        <mxCell id="MXh0XPTJ4W-5BztZ-EwL-21" value="arr[left_spot] &amp;lt;= arr[right_spot]" style="rhombus;whiteSpace=wrap;html=1;" vertex="1" parent="1">
          <mxGeometry x="417.5" y="550" width="175" height="170" as="geometry" />
        </mxCell>
        <mxCell id="MXh0XPTJ4W-5BztZ-EwL-23" value="tmp[sorted_spot] = arr[left_spot]&lt;br&gt;left_spot++&lt;br&gt;sorted_spot++" style="whiteSpace=wrap;html=1;aspect=fixed;" vertex="1" parent="1">
          <mxGeometry x="435" y="770" width="140" height="140" as="geometry" />
        </mxCell>
        <mxCell id="MXh0XPTJ4W-5BztZ-EwL-29" value="tmp[sorted_spot] = arr[right_spot]&lt;br&gt;right_spot++&lt;br&gt;sorted_spot++" style="whiteSpace=wrap;html=1;aspect=fixed;" vertex="1" parent="1">
          <mxGeometry x="750" y="335" width="150" height="150" as="geometry" />
        </mxCell>
      </root>
    </mxGraphModel>
  </diagram>
</mxfile>
